<?xml version="1.0" encoding="utf-8"?>
<!-- Generator: Adobe Illustrator 19.0.0, SVG Export Plug-In . SVG Version: 6.00 Build 0)  -->
<svg version="1.1" id="Layer_1" xmlns="http://www.w3.org/2000/svg" xmlns:xlink="http://www.w3.org/1999/xlink" x="0px" y="0px"
	 viewBox="0 0 378 370" style="enable-background:new 0 0 378 370;" xml:space="preserve">
<style type="text/css">
	.st0{fill:#FFFFFF;stroke:#000000;stroke-width:2.8687;stroke-linecap:round;stroke-linejoin:round;}
	.st1{fill:#FFFFFF;stroke:#000000;stroke-width:5;stroke-linecap:round;}
	.st2{fill:#FFFFFF;stroke:#000000;stroke-width:4.4118;stroke-linecap:round;stroke-linejoin:round;}
	.st3{fill:#FFFFFF;stroke:#000000;stroke-width:5;}
	.st4{fill:#FFFFFF;stroke:#000000;stroke-width:5;stroke-linecap:round;stroke-linejoin:round;}
	.st5{fill:#FFFFFF;stroke:#000000;stroke-width:3.1693;stroke-linecap:round;}
	.st6{fill:#FFFFFF;stroke:#000000;stroke-width:5;stroke-linejoin:round;}
</style>
<path id="path3226" class="st0" d="M184,345.2c0,12.7-6.4,23-14.3,23c-7.9,0-14.3-10.3-14.3-23s6.4-23,14.3-23
	C177.6,322.1,184,332.4,184,345.2z"/>
<path id="path3228" class="st0" d="M149.5,345.2c0,12.7-6.4,23-14.3,23s-14.3-10.3-14.3-23s6.4-23,14.3-23S149.5,332.4,149.5,345.2z
	"/>
<path id="path3230" class="st0" d="M166.5,345.2c0,12.7-6.4,23-14.3,23c-7.9,0-14.3-10.3-14.3-23s6.4-23,14.3-23
	C160.1,322.1,166.5,332.4,166.5,345.2z"/>
<path id="path3224" class="st0" d="M261,345.2c0,12.7-6.4,23-14.3,23c-7.9,0-14.3-10.3-14.3-23s6.4-23,14.3-23
	C254.6,322.1,261,332.4,261,345.2z"/>
<path id="path3220" class="st0" d="M226.5,345.2c0,12.7-6.4,23-14.3,23c-7.9,0-14.3-10.3-14.3-23s6.4-23,14.3-23
	C220.1,322.1,226.5,332.4,226.5,345.2z"/>
<path id="path3222" class="st0" d="M243.5,345.2c0,12.7-6.4,23-14.3,23c-7.9,0-14.3-10.3-14.3-23s6.4-23,14.3-23
	C237.1,322.1,243.5,332.4,243.5,345.2z"/>
<path id="path2385" class="st1" d="M354.7,169.1c0,91.4-74.1,165.6-165.6,165.6S23.5,260.5,23.5,169.1C23.5,77.6,97.7,3.5,189.1,3.5
	S354.7,77.6,354.7,169.1z"/>
<path id="path3167" class="st2" d="M270.9,251.8c-26.5-4.9-2.2,21.6-6.3,31.2c-16.1-7.9-9.9,18.3-17.2,25.5
	c-13.8-0.7-15.9,13.1-25.5,17.2c-11.6-6.4-20.2,6.3-31.2,6.3c-11.1,0-17.6-12.2-31.2-6.3c-9.6-4.1-11.8-17.4-25.5-17.2
	c-7.3-7.3-6.1-34.9-17.2-25.5c-4.1-9.6,14.7-38.2-6.3-31.2c0-11.1,22.2-31.6,6.3-31.2c4.1-9.6,24.4-16.8,17.2-25.5
	c14.5-14.5,34.6-23.5,56.7-23.5s42.2,9,56.7,23.5c-10.7,5.3,13.1,15.9,17.2,25.5C246.7,219.7,270.9,240.8,270.9,251.8z"/>
<path id="path3169" class="st3" d="M55.7,132c48.1,17.3-14.2,94.1,37.8,161.2c9.6,12.4-57.9,2.1-81.7-66.6
	C-11.4,159.9,10.7,119.1,55.7,132z"/>
<path id="path3800" class="st3" d="M322.2,132c-48.1,17.3,14.2,94.1-37.8,161.2c-9.6,12.4,57.9,2.1,81.7-66.6
	C389.3,159.9,367.2,119.1,322.2,132z"/>
<path id="path2413" class="st4" d="M304.5,123c13.4-4.6,27.2,7.6,29.9,14.2c-13.5-3.5-19.7-4.4-23.2-1.4c1.5,3.4,17.4,6.7,22.3,28.9
	c-12.4-8.6-22.3-18.6-26.3-14.5c2.9,5,6.2,14.5,4,23.9c-7.1-9.4-14.4-19.4-21.1-19.6"/>
<path id="path2387" class="st1" d="M143.1,41.3c-31.2,0-56.6,29.3-56.6,65.5s25.4,65.5,56.6,65.5c18.4,0,34.6-10.1,45-25.8
	c10.3,15.7,26.7,25.8,45,25.8c31.2,0,56.6-29.3,56.6-65.5c0-36.1-25.4-65.5-56.6-65.5c-18.4,0-34.7,10.1-45,25.8
	C177.8,51.4,161.5,41.3,143.1,41.3z"/>
<path id="path2391" class="st3" d="M187.7,141.6c-9.3,0-19.4,9.3-19,15.2s16.6,30.4,20.2,30.4c3.6,0,17.8-24,17.4-30.9
	C205.9,149.4,193.8,141.1,187.7,141.6z"/>
<path id="path2411" class="st5" d="M184.6,111.2c0,9.1-7.3,16.4-16.4,16.4s-16.4-7.3-16.4-16.4s7.3-16.4,16.4-16.4
	S184.6,102.1,184.6,111.2z"/>
<path id="path3193" class="st4" d="M73.1,123c-13.4-4.6-27.2,7.6-29.9,14.2c13.5-3.5,19.7-4.4,23.2-1.4c-1.5,3.4-17.4,6.7-22.3,28.9
	c12.4-8.6,22.3-18.6,26.3-14.5c-2.9,5-6.2,14.5-4,23.9c7.1-9.4,14.4-19.4,21.1-19.6"/>
<path id="path3283" class="st6" d="M202,52.3c13.3-32.2,35.7-36.5,35.7-36.5s-12.5,16.8-1.2,12.1c17.5-7.2,73,15.4,73,15.4
	S235.9,26.2,202,52.3z"/>
<path id="path3285" class="st6" d="M171.5,49.3c-13.3-32.2-35.7-36.5-35.7-36.5s12.5,16.8,1.2,12.1c-17.5-7.2-73,15.4-73,15.4
	S137.6,23.2,171.5,49.3z"/>
<path id="path3301" class="st5" d="M226.1,111.2c0,9.1-7.3,16.4-16.4,16.4s-16.4-7.3-16.4-16.4s7.3-16.4,16.4-16.4
	S226.1,102.1,226.1,111.2z"/>
</svg>
